<mxfile host="Electron" agent="Mozilla/5.0 (Windows NT 10.0; Win64; x64) AppleWebKit/537.36 (KHTML, like Gecko) draw.io/24.7.5 Chrome/126.0.6478.183 Electron/31.3.0 Safari/537.36" version="24.7.5">
  <diagram name="Page-1" id="3VCc4Jlw1wtIVHL4E6GO">
    <mxGraphModel dx="1050" dy="621" grid="1" gridSize="10" guides="1" tooltips="1" connect="1" arrows="1" fold="1" page="1" pageScale="1" pageWidth="827" pageHeight="1169" math="0" shadow="0">
      <root>
        <mxCell id="0" />
        <mxCell id="1" parent="0" />
        <mxCell id="HXPBP3TFE9-Q8POiegOc-1" value="&lt;p align=&quot;center&quot; class=&quot;MsoNormal&quot;&gt;&lt;b&gt;&lt;u&gt;&lt;span style=&quot;font-size:20.0pt;mso-bidi-font-size:11.0pt;line-height:&lt;br/&gt;107%&quot;&gt;NAT Gateway Setup in Your VPC&lt;/span&gt;&lt;/u&gt;&lt;/b&gt;&lt;/p&gt;" style="text;html=1;align=center;verticalAlign=middle;resizable=0;points=[];autosize=1;strokeColor=none;fillColor=none;" vertex="1" parent="1">
          <mxGeometry x="199" y="8" width="430" height="70" as="geometry" />
        </mxCell>
        <mxCell id="HXPBP3TFE9-Q8POiegOc-2" value="&lt;span style=&quot;color: rgb(31, 35, 40); background-color: rgb(255, 255, 255);&quot;&gt;&lt;font style=&quot;font-size: 12px;&quot; face=&quot;Verdana&quot;&gt;ap-south-1 (Mumbai)&lt;/font&gt;&lt;/span&gt;" style="points=[[0,0],[0.25,0],[0.5,0],[0.75,0],[1,0],[1,0.25],[1,0.5],[1,0.75],[1,1],[0.75,1],[0.5,1],[0.25,1],[0,1],[0,0.75],[0,0.5],[0,0.25]];outlineConnect=0;gradientColor=none;html=1;whiteSpace=wrap;fontSize=12;fontStyle=0;container=1;pointerEvents=0;collapsible=0;recursiveResize=0;shape=mxgraph.aws4.group;grIcon=mxgraph.aws4.group_region;strokeColor=#00A4A6;fillColor=none;verticalAlign=top;align=left;spacingLeft=30;fontColor=#147EBA;dashed=1;" vertex="1" parent="1">
          <mxGeometry x="120" y="80" width="680" height="470" as="geometry" />
        </mxCell>
        <mxCell id="HXPBP3TFE9-Q8POiegOc-3" value="&lt;span style=&quot;color: rgb(31, 35, 40); background-color: rgb(255, 255, 255);&quot;&gt;&lt;font style=&quot;font-size: 12px;&quot; face=&quot;Verdana&quot;&gt;test-vpc 12.0.0.0/16&lt;/font&gt;&lt;/span&gt;" style="points=[[0,0],[0.25,0],[0.5,0],[0.75,0],[1,0],[1,0.25],[1,0.5],[1,0.75],[1,1],[0.75,1],[0.5,1],[0.25,1],[0,1],[0,0.75],[0,0.5],[0,0.25]];outlineConnect=0;gradientColor=none;html=1;whiteSpace=wrap;fontSize=12;fontStyle=0;container=1;pointerEvents=0;collapsible=0;recursiveResize=0;shape=mxgraph.aws4.group;grIcon=mxgraph.aws4.group_vpc2;strokeColor=#8C4FFF;fillColor=none;verticalAlign=top;align=left;spacingLeft=30;fontColor=#AAB7B8;dashed=1;" vertex="1" parent="1">
          <mxGeometry x="160" y="120" width="600" height="400" as="geometry" />
        </mxCell>
        <mxCell id="HXPBP3TFE9-Q8POiegOc-5" value="&lt;span style=&quot;color: rgb(31, 35, 40); background-color: rgb(255, 255, 255);&quot;&gt;&lt;font style=&quot;font-size: 12px;&quot; face=&quot;Verdana&quot;&gt;test-vpc-private(&lt;/font&gt;&lt;/span&gt;&lt;span style=&quot;color: rgb(31, 35, 40); font-family: Verdana; background-color: rgb(255, 255, 255);&quot;&gt;ap-south-1a)&lt;/span&gt;" style="sketch=0;outlineConnect=0;gradientColor=none;html=1;whiteSpace=wrap;fontSize=12;fontStyle=0;shape=mxgraph.aws4.group;grIcon=mxgraph.aws4.group_subnet;strokeColor=#a513b9;fillColor=none;verticalAlign=top;align=left;spacingLeft=30;fontColor=#879196;dashed=1;" vertex="1" parent="HXPBP3TFE9-Q8POiegOc-3">
          <mxGeometry x="340" y="40" width="220" height="320" as="geometry" />
        </mxCell>
        <mxCell id="HXPBP3TFE9-Q8POiegOc-7" value="&lt;h4 style=&quot;font-size: 10px;&quot;&gt;&lt;span style=&quot;font-size: 10px;&quot;&gt;&lt;font face=&quot;Verdana&quot; style=&quot;font-size: 10px;&quot;&gt;12.0.2.0/24&lt;/font&gt;&lt;/span&gt;&lt;/h4&gt;" style="text;html=1;align=center;verticalAlign=middle;resizable=0;points=[];autosize=1;strokeColor=none;fillColor=none;fontSize=10;fontStyle=1" vertex="1" parent="HXPBP3TFE9-Q8POiegOc-3">
          <mxGeometry x="405" y="325" width="90" height="50" as="geometry" />
        </mxCell>
        <mxCell id="HXPBP3TFE9-Q8POiegOc-8" value="" style="outlineConnect=0;dashed=0;verticalLabelPosition=bottom;verticalAlign=top;align=center;html=1;shape=mxgraph.aws3.internet_gateway;fillColor=#F58534;gradientColor=none;fontFamily=Verdana;" vertex="1" parent="HXPBP3TFE9-Q8POiegOc-3">
          <mxGeometry x="260" y="-20" width="40" height="42" as="geometry" />
        </mxCell>
        <mxCell id="HXPBP3TFE9-Q8POiegOc-18" value="test-vpc-private-rt" style="outlineConnect=0;dashed=0;verticalLabelPosition=bottom;verticalAlign=top;align=center;html=1;shape=mxgraph.aws3.route_table;fillColor=#F58536;gradientColor=none;" vertex="1" parent="HXPBP3TFE9-Q8POiegOc-3">
          <mxGeometry x="340" y="175.5" width="54" height="49" as="geometry" />
        </mxCell>
        <mxCell id="HXPBP3TFE9-Q8POiegOc-19" value="" style="outlineConnect=0;dashed=0;verticalLabelPosition=bottom;verticalAlign=top;align=center;html=1;shape=mxgraph.aws3.ec2;fillColor=#F58534;gradientColor=none;" vertex="1" parent="HXPBP3TFE9-Q8POiegOc-3">
          <mxGeometry x="460" y="225" width="50" height="63" as="geometry" />
        </mxCell>
        <mxCell id="HXPBP3TFE9-Q8POiegOc-25" value="test-ec2-private" style="text;html=1;align=center;verticalAlign=middle;resizable=0;points=[];autosize=1;strokeColor=none;fillColor=none;" vertex="1" parent="HXPBP3TFE9-Q8POiegOc-3">
          <mxGeometry x="430" y="280" width="110" height="30" as="geometry" />
        </mxCell>
        <mxCell id="HXPBP3TFE9-Q8POiegOc-4" value="&lt;span style=&quot;color: rgb(31, 35, 40); background-color: rgb(255, 255, 255);&quot;&gt;&lt;font style=&quot;font-size: 12px;&quot; face=&quot;Verdana&quot;&gt;test-vpc-public(ap-south-1a)&lt;/font&gt;&lt;/span&gt;" style="sketch=0;outlineConnect=0;gradientColor=none;html=1;whiteSpace=wrap;fontSize=12;fontStyle=0;shape=mxgraph.aws4.group;grIcon=mxgraph.aws4.group_subnet;strokeColor=#14c820;fillColor=none;verticalAlign=top;align=left;spacingLeft=30;fontColor=#879196;dashed=1;" vertex="1" parent="1">
          <mxGeometry x="200" y="160" width="220" height="320" as="geometry" />
        </mxCell>
        <mxCell id="HXPBP3TFE9-Q8POiegOc-6" value="&lt;h4 style=&quot;font-size: 10px;&quot;&gt;&lt;span style=&quot;font-size: 10px;&quot;&gt;&lt;font face=&quot;Verdana&quot; style=&quot;font-size: 10px;&quot;&gt;12.0.1.0/24&lt;/font&gt;&lt;/span&gt;&lt;/h4&gt;" style="text;html=1;align=center;verticalAlign=middle;resizable=0;points=[];autosize=1;strokeColor=none;fillColor=none;fontSize=10;fontStyle=1" vertex="1" parent="1">
          <mxGeometry x="255" y="445" width="90" height="50" as="geometry" />
        </mxCell>
        <mxCell id="HXPBP3TFE9-Q8POiegOc-9" value="Internet Gateway" style="text;html=1;align=center;verticalAlign=middle;resizable=0;points=[];autosize=1;strokeColor=none;fillColor=none;" vertex="1" parent="1">
          <mxGeometry x="385" y="138" width="110" height="30" as="geometry" />
        </mxCell>
        <mxCell id="HXPBP3TFE9-Q8POiegOc-10" value="test-vpc-public-rt" style="outlineConnect=0;dashed=0;verticalLabelPosition=bottom;verticalAlign=top;align=center;html=1;shape=mxgraph.aws3.route_table;fillColor=#F58536;gradientColor=none;" vertex="1" parent="1">
          <mxGeometry x="366" y="295.5" width="54" height="49" as="geometry" />
        </mxCell>
        <mxCell id="HXPBP3TFE9-Q8POiegOc-35" style="edgeStyle=orthogonalEdgeStyle;rounded=0;orthogonalLoop=1;jettySize=auto;html=1;" edge="1" parent="1" source="HXPBP3TFE9-Q8POiegOc-17" target="HXPBP3TFE9-Q8POiegOc-8">
          <mxGeometry relative="1" as="geometry" />
        </mxCell>
        <mxCell id="HXPBP3TFE9-Q8POiegOc-17" value="test-vpc-natgw-public" style="outlineConnect=0;dashed=0;verticalLabelPosition=bottom;verticalAlign=top;align=center;html=1;shape=mxgraph.aws3.vpc_nat_gateway;fillColor=#F58536;gradientColor=none;" vertex="1" parent="1">
          <mxGeometry x="390" y="190" width="30" height="32" as="geometry" />
        </mxCell>
        <mxCell id="HXPBP3TFE9-Q8POiegOc-32" style="edgeStyle=orthogonalEdgeStyle;rounded=0;orthogonalLoop=1;jettySize=auto;html=1;" edge="1" parent="1" source="HXPBP3TFE9-Q8POiegOc-20" target="HXPBP3TFE9-Q8POiegOc-19">
          <mxGeometry relative="1" as="geometry" />
        </mxCell>
        <mxCell id="HXPBP3TFE9-Q8POiegOc-20" value="" style="outlineConnect=0;dashed=0;verticalLabelPosition=bottom;verticalAlign=top;align=center;html=1;shape=mxgraph.aws3.ec2;fillColor=#F58534;gradientColor=none;fontFamily=Verdana;" vertex="1" parent="1">
          <mxGeometry x="255" y="350" width="50" height="53" as="geometry" />
        </mxCell>
        <mxCell id="HXPBP3TFE9-Q8POiegOc-24" value="test-ec2-public" style="text;html=1;align=center;verticalAlign=middle;resizable=0;points=[];autosize=1;strokeColor=none;fillColor=none;" vertex="1" parent="1">
          <mxGeometry x="230" y="403" width="100" height="30" as="geometry" />
        </mxCell>
        <mxCell id="HXPBP3TFE9-Q8POiegOc-33" style="edgeStyle=orthogonalEdgeStyle;rounded=0;orthogonalLoop=1;jettySize=auto;html=1;" edge="1" parent="1" source="HXPBP3TFE9-Q8POiegOc-26" target="HXPBP3TFE9-Q8POiegOc-20">
          <mxGeometry relative="1" as="geometry">
            <Array as="points">
              <mxPoint x="280" y="320" />
            </Array>
          </mxGeometry>
        </mxCell>
        <mxCell id="HXPBP3TFE9-Q8POiegOc-26" value="" style="html=1;verticalLabelPosition=bottom;align=center;labelBackgroundColor=#ffffff;verticalAlign=top;strokeWidth=2;strokeColor=#0080F0;shadow=0;dashed=0;shape=mxgraph.ios7.icons.user;" vertex="1" parent="1">
          <mxGeometry x="40" y="290" width="60" height="60" as="geometry" />
        </mxCell>
        <mxCell id="HXPBP3TFE9-Q8POiegOc-34" style="edgeStyle=orthogonalEdgeStyle;rounded=0;orthogonalLoop=1;jettySize=auto;html=1;entryX=1;entryY=0.5;entryDx=0;entryDy=0;entryPerimeter=0;" edge="1" parent="1" source="HXPBP3TFE9-Q8POiegOc-19" target="HXPBP3TFE9-Q8POiegOc-17">
          <mxGeometry relative="1" as="geometry">
            <Array as="points">
              <mxPoint x="520" y="350" />
              <mxPoint x="520" y="206" />
            </Array>
          </mxGeometry>
        </mxCell>
      </root>
    </mxGraphModel>
  </diagram>
</mxfile>
